<svg width="132" height="67" viewBox="0 0 132 67" fill="none" xmlns="http://www.w3.org/2000/svg">
<g filter="url(#filter0_d_123_237)">
<path d="M4.74844 4.49841C4.47891 4.6497 3.45279 4.92653 4.27907 4.92653C6.10275 4.92653 7.90538 4.791 9.7159 4.59355C14.4048 4.08219 19.1903 3 23.9142 3C27.5242 3 31.2229 3.40646 34.7879 3" stroke="black" stroke-width="6" stroke-linecap="round"/>
<path d="M12.1511 5.88979C12.8035 7.9533 12.7291 10.3227 12.7291 12.4426C12.7291 13.4482 11.9535 17.449 13.596 17.449" stroke="black" stroke-width="6" stroke-linecap="round"/>
<path d="M25.6367 5.40816C25.5202 8.90282 25.5714 12.5687 25.155 16.0041" stroke="black" stroke-width="6" stroke-linecap="round"/>
<path d="M7.33472 18.8933C13.46 18.8933 19.8089 18.9334 25.9037 18.3247C26.9559 18.2196 27.9287 18.3364 28.9705 18.3247C30.1567 18.3114 31.1356 17.8731 32.2572 17.601C33.3481 17.3364 34.6336 17.4976 35.751 17.4976" stroke="black" stroke-width="6" stroke-linecap="round"/>
<path d="M19.943 20.3388C19.0259 22.5705 19.265 25.8275 20.3388 28.0449" stroke="black" stroke-width="6" stroke-linecap="round"/>
<path d="M3 30.6791C7.34419 30.6791 11.6934 31.0112 16.0302 30.9183C18.4521 30.8664 20.7892 30.0662 23.2112 29.9749C25.111 29.9033 27.0022 29.7224 28.9037 29.7224C31.5342 29.7224 34.0167 29.0049 36.6592 29.0049C38.4427 29.0049 40.217 28.5265 42.0122 28.5265" stroke="black" stroke-width="6" stroke-linecap="round"/>
<path d="M11.2024 38.4137C12.8852 38.4137 14.5268 38.3592 16.2031 38.2294C18.2191 38.0734 20.2237 38.7282 22.2753 38.6375C24.0176 38.5604 25.7517 38.3179 27.4877 38.1899C28.4862 38.1163 29.9959 38.1154 30.7288 38.8876C31.2682 39.4558 31.5467 41.2423 31.3903 42.0204C31.0876 43.5264 29.3226 43.7437 28.0962 43.9949C25.9294 44.4388 24.005 44.6971 21.7858 44.8637C19.9481 45.0017 17.8935 44.8005 16.0972 45.1796C13.3556 45.7583 11.2706 46.7858 11.2024 49.8394C11.1448 52.418 11.1006 54.7983 14.3113 54.9862C16.1113 55.0916 17.8797 54.8968 19.6691 54.7625C21.7515 54.6061 23.66 54.7339 25.7282 54.7625C27.2762 54.7839 29.0822 54.9945 30.5965 54.6308C31.7532 54.353 32.6151 54.0516 33.8245 54.0516" stroke="black" stroke-width="6" stroke-linecap="round"/>
<path d="M48.7551 11.6331C52.2078 11.6331 55.6713 11.7227 59.1219 11.6202C61.0639 11.5626 62.9875 11.4014 64.933 11.4014C65.6407 11.4014 67.94 11.4503 66.6932 10.7061" stroke="black" stroke-width="6" stroke-linecap="round"/>
<path d="M49.8706 12.6326C49.416 13.6783 49.3529 14.8468 49.4073 15.9727C49.5366 18.648 49.5841 21.2251 49.3941 23.9052C49.0674 28.5136 49.2912 32.8911 49.6853 37.4741C49.7771 38.5412 49.8497 40.2765 51.115 40.6576C52.4979 41.074 53.8756 40.5146 55.2452 40.3966C57.3128 40.2186 59.4321 40.3444 61.5066 40.3444C62.5938 40.3444 63.2725 40.4609 64.1674 41.049" stroke="black" stroke-width="6" stroke-linecap="round"/>
<path d="M62.7224 27.2141C64.8459 27.2723 66.8016 27.6052 68.9738 27.4663C70.443 27.3723 73.2334 26.5935 74.2816 27.5633" stroke="black" stroke-width="6" stroke-linecap="round"/>
<path d="M78.6162 6.85306C78.6162 15.9452 76.7953 24.9885 75.8477 34.0189C75.2697 39.5281 74.7632 45.1483 74.7632 50.6816" stroke="black" stroke-width="6" stroke-linecap="round"/>
<path d="M87.2775 11.6694C82.5374 11.6694 96.7395 12.3895 101.48 12.3895C103.672 12.3895 105.827 12.1138 107.998 12.4962C108.955 12.6648 109.919 12.6296 110.886 12.6296" stroke="black" stroke-width="6" stroke-linecap="round"/>
<path d="M92.7528 15.0408C92.4295 16.0878 92.6488 17.2281 92.7639 18.3006C93.1286 21.7006 93.3311 25.1192 93.2271 28.5477C93.1575 30.8415 92.905 33.1158 92.7969 35.405C92.7482 36.4388 92.7442 37.0205 93.547 36.5479" stroke="black" stroke-width="6" stroke-linecap="round"/>
<path d="M102.116 16.0041C102.392 20.5214 102.078 24.7991 101.406 29.2583C100.959 32.229 100.428 35.147 100.29 38.1592" stroke="black" stroke-width="6" stroke-linecap="round"/>
<path d="M85.8408 41.5306C90.8573 41.2734 95.898 40.6036 100.906 40.1926C103.483 39.9811 105.997 40.1487 108.478 40.1487" stroke="black" stroke-width="6" stroke-linecap="round"/>
<path d="M121 4.85616C120.996 4.76017 120.97 4.04917 120.89 4.75136C120.625 7.07441 120.679 9.46573 120.523 11.7991C119.916 20.8528 119.12 29.8871 118.394 38.9289C118.069 42.9728 117.98 47.106 118.357 51.1511C118.419 51.8102 119.323 55.4976 118.357 53.4305" stroke="black" stroke-width="6" stroke-linecap="round"/>
</g>
<defs>
<filter id="filter0_d_123_237" x="0" y="-0.000274658" width="132" height="66.0159" filterUnits="userSpaceOnUse" color-interpolation-filters="sRGB">
<feFlood flood-opacity="0" result="BackgroundImageFix"/>
<feColorMatrix in="SourceAlpha" type="matrix" values="0 0 0 0 0 0 0 0 0 0 0 0 0 0 0 0 0 0 127 0" result="hardAlpha"/>
<feOffset dx="4" dy="4"/>
<feGaussianBlur stdDeviation="2"/>
<feComposite in2="hardAlpha" operator="out"/>
<feColorMatrix type="matrix" values="0 0 0 0 0 0 0 0 0 0 0 0 0 0 0 0 0 0 0.25 0"/>
<feBlend mode="normal" in2="BackgroundImageFix" result="effect1_dropShadow_123_237"/>
<feBlend mode="normal" in="SourceGraphic" in2="effect1_dropShadow_123_237" result="shape"/>
</filter>
</defs>
</svg>
