<svg width="72" height="72" viewBox="0 0 72 72" fill="none" xmlns="http://www.w3.org/2000/svg">
<circle cx="36" cy="36" r="36" fill="#D9D9D9"/>
<path d="M35.364 32.7465C27.1629 32.7465 20.4907 26.0746 20.4907 17.8733C20.4907 9.67195 27.1629 3 35.364 3C43.565 3 50.2372 9.67195 50.2372 17.8733C50.2372 26.0746 43.565 32.7465 35.364 32.7465ZM35.364 7.0887C29.4175 7.0887 24.5791 11.9268 24.5791 17.8735C24.5791 23.8203 29.4172 28.6584 35.364 28.6584C41.3107 28.6584 46.1488 23.8203 46.1488 17.8735C46.1488 11.9268 41.3107 7.0887 35.364 7.0887Z" fill="#727171"/>
<path d="M59.1273 63.2577C57.9984 63.2577 57.083 62.3424 57.083 61.2134C57.083 49.6355 47.6637 40.2165 36.0856 40.2165C24.5074 40.2165 15.0887 49.6358 15.0887 61.2134C15.0887 62.3424 14.1733 63.2577 13.0444 63.2577C11.9154 63.2577 11 62.3424 11 61.2134C11 47.3812 22.2534 36.1278 36.0856 36.1278C49.9177 36.1278 61.1717 47.3812 61.1717 61.2134C61.1717 62.3424 60.2563 63.2577 59.1273 63.2577Z" fill="#727171"/>
</svg>
